<svg width="64" height="32" viewBox="0 0 64 32" fill="none" xmlns="http://www.w3.org/2000/svg">
<path d="M29 25.0002V17.6002C29 17.0402 29 16.7601 29.109 16.5462C29.2049 16.3581 29.3578 16.2051 29.546 16.1092C29.7599 16.0002 30.0399 16.0002 30.6 16.0002H33.4C33.9601 16.0002 34.2401 16.0002 34.454 16.1092C34.6422 16.2051 34.7951 16.3581 34.891 16.5462C35 16.7601 35 17.0402 35 17.6002V25.0002M31.0177 6.76424L24.2354 12.0394C23.782 12.392 23.5553 12.5683 23.392 12.7891C23.2474 12.9847 23.1396 13.205 23.074 13.4393C23 13.7038 23 13.9909 23 14.5653V21.8002C23 22.9203 23 23.4804 23.218 23.9082C23.4097 24.2845 23.7157 24.5905 24.092 24.7822C24.5198 25.0002 25.0799 25.0002 26.2 25.0002H37.8C38.9201 25.0002 39.4802 25.0002 39.908 24.7822C40.2843 24.5905 40.5903 24.2845 40.782 23.9082C41 23.4804 41 22.9203 41 21.8002V14.5653C41 13.9909 41 13.7038 40.926 13.4393C40.8604 13.205 40.7526 12.9847 40.608 12.7891C40.4447 12.5683 40.218 12.392 39.7646 12.0394L32.9823 6.76424C32.631 6.49099 32.4553 6.35436 32.2613 6.30184C32.0902 6.2555 31.9098 6.2555 31.7387 6.30184C31.5447 6.35436 31.369 6.49099 31.0177 6.76424Z" stroke="#363636" stroke-width="2" stroke-linecap="round" stroke-linejoin="round"/>
</svg>
